<?xml version="1.0" encoding="utf-8"?>
<!-- Generator: Adobe Illustrator 24.1.1, SVG Export Plug-In . SVG Version: 6.00 Build 0)  -->
<svg version="1.1" id="Layer_1" focusable="false" xmlns="http://www.w3.org/2000/svg" xmlns:xlink="http://www.w3.org/1999/xlink"
	 x="0px" y="0px" viewBox="0 0 384 512" style="enable-background:new 0 0 384 512;" xml:space="preserve">
<style type="text/css">
	.st0{fill:#194000;}
	.st1{fill:#E5D9A5;stroke:#000000;stroke-miterlimit:10;}
</style>
<path class="st0" d="M172.3,501.7C27,291,0,269.4,0,192C0,86,86,0,192,0s192,86,192,192c0,77.4-27,99-172.3,309.7
	C202.2,515.4,181.8,515.4,172.3,501.7L172.3,501.7z"/>
<ellipse class="st1" cx="192" cy="192.6" rx="160.7" ry="163.4"/>
<path class="st0" d="M188,163v31.2c12,2.7,22.6,7.1,33.7,10.2v-31.2C209.8,170.5,199,166,188,163L188,163z M290.2,106.7
	c-15.7,7.3-35,14.6-53.6,14.6c-24.5,0-44.8-15.9-75.6-15.9c-11.4,0-21.7,2-31.1,5.5c1.3-3.3,1.9-7,1.6-10.8
	C130.7,87,120,76.6,107,76c-14.7-0.6-26.7,11.1-26.7,25.6c0,8.7,4.4,16.4,11,21v176.8c0,6.1,4.9,11,11,11h7.3c6.1,0,11-4.9,11-11
	v-43.2c13-5.5,29.1-10.1,52.4-10.1c24.5,0,44.8,15.9,75.6,15.9c22.1,0,39.7-7.5,56.1-18.7c4-2.7,6.3-7.2,6.3-12.1V119.9
	C311,109.3,299.9,102.2,290.2,106.7L290.2,106.7z M154.3,225.1c-11.8,1.2-22.9,3.8-33.7,7.6v-32.3c12-4.3,21.8-6.9,33.7-8V225.1z
	 M289.1,163.5c-10.8,4.5-21.2,8.9-33.7,10.9V207c11.4-1.6,23.5-5.4,33.7-11.9v32.3c-11.5,7.4-22.2,11.3-33.7,12.4V207
	c-12.4,1.7-21.9,0.7-33.7-2.6v30.9c-10.9-3.4-21.7-7.6-33.7-9.8v-31.4c-9-2-18.7-3.1-33.7-1.7v-32.1c-10.3,1.4-20.4,4.7-33.7,9.6
	v-32.3c15.2-5.6,22.9-9.1,33.7-10.1v32.8c12.4-1.7,22.2-0.6,33.7,2.6v-30.9c10.9,3.4,21.6,7.6,33.7,9.8v31.3
	c10.9,2.4,21.8,3.2,33.7,1.2v-32.9c12.4-2.2,23.9-6.2,33.7-10.3V163.5z"/>
</svg>
