<?xml version="1.0" encoding="utf-8"?>
<!-- Generator: Adobe Illustrator 24.1.1, SVG Export Plug-In . SVG Version: 6.00 Build 0)  -->
<svg version="1.1" id="Layer_1" xmlns="http://www.w3.org/2000/svg" xmlns:xlink="http://www.w3.org/1999/xlink" x="0px" y="0px"
	 viewBox="0 0 612 792" style="enable-background:new 0 0 612 792;" xml:space="preserve">
<style type="text/css">
	.st0{fill:#59B547;}
	.st1{fill:#FFFFFF;}
</style>
<path id="Path_1" class="st0" d="M325.87,431.26c7.09,7.15,14.21,14.27,21.35,21.36c0.48,0.48,0.59,0.75,0.11,1.39
	c-3.61,4.8-3.24,9.78,0.98,14.01c13.57,13.58,27.14,27.16,40.72,40.73c8.06,8.07,16.1,16.14,24.14,24.23l0.09,0.05
	c3.51,0.77,5.22-0.38,6.74-1.91c6.93-6.95,13.87-13.89,20.82-20.82c1.3-1.12,2.08-2.73,2.15-4.45c-0.53-0.62-1.25-1.07-1.83-1.64
	c-16.64-16.64-33.29-33.28-49.93-49.93c-4.93-4.93-9.83-9.88-14.79-14.77c-4.08-4.01-9.2-4.38-13.62-0.93
	c-0.99,0.77-1.34,0.3-1.93-0.3c-6.78-6.8-13.55-13.61-20.39-20.35"/>
<ellipse id="Ellipse_1" class="st0" cx="267.17" cy="355.48" rx="97.89" ry="97.89"/>
<path id="Path_2" class="st1" d="M267.33,276.82c43.43,0,78.64,35.21,78.64,78.64s-35.21,78.64-78.64,78.64
	s-78.64-35.21-78.64-78.64c0,0,0,0,0,0C188.69,312.03,223.9,276.82,267.33,276.82z"/>
</svg>
