<?xml version="1.0" encoding="utf-8"?>
<!-- Generator: Adobe Illustrator 24.1.1, SVG Export Plug-In . SVG Version: 6.00 Build 0)  -->
<svg version="1.1" id="Layer_1" focusable="false" xmlns="http://www.w3.org/2000/svg" xmlns:xlink="http://www.w3.org/1999/xlink"
	 x="0px" y="0px" viewBox="0 0 384 512" style="enable-background:new 0 0 384 512;" xml:space="preserve">
<style type="text/css">
	.st0{fill:#194000;}
	.st1{fill:#E5D9A5;stroke:#000000;stroke-miterlimit:10;}
</style>
<path class="st0" d="M172.3,501.7C27,291,0,269.4,0,192C0,86,86,0,192,0s192,86,192,192c0,77.4-27,99-172.3,309.7
	C202.2,515.4,181.8,515.4,172.3,501.7L172.3,501.7z"/>
<ellipse class="st1" cx="192" cy="192.6" rx="160.7" ry="163.4"/>
<path class="st0" d="M116.8,300c-2.4,9.2,3.2,18.4,12.4,20.7c1.5,0.4,2.8,0.4,4.1,0.4c7.7,0,14.5-5.1,16.7-13l13.5-53.9l-28.2-28.2
	L116.8,300L116.8,300z M125,195.1l22-85.1c1.1-4.5-1.7-9-6.4-10.3c-23.5-5.6-47.2,8.1-53,30.6l-13.5,52.4c-1.1,4.5,1.7,9,6.4,10.3
	l34,8.1C119,202.3,123.7,199.6,125,195.1z M270.3,133.1h-8.6c-4.7,0-8.6,3.8-8.6,8.6v8.6h-18.6l-25-25c-6-6-13.9-9.2-22.2-9.2
	c-14.5,0-26.9,9.8-30.6,23.7l-14.3,57.5c-1.5,5.8,0.2,12,4.5,16.2l46.4,46.4v44.3c0,9.4,7.7,17.1,17.1,17.1s17.1-7.7,17.1-17.1
	v-44.3c0-9.2-3.6-17.7-10-24.2l-25-25c0-0.2,0.2-0.4,0.4-0.9l10.7-42.5l12,12c3.2,3.2,7.5,4.9,12.2,4.9h25.7v128.3
	c0,4.7,3.8,8.6,8.6,8.6h8.6c4.7,0,8.6-3.8,8.6-8.6v-171C278.9,136.9,275,133.1,270.3,133.1z M201.9,98.9c14.1,0,25.7-11.5,25.7-25.7
	S216,47.6,201.9,47.6s-25.7,11.5-25.7,25.7S187.8,98.9,201.9,98.9z"/>
</svg>
