<?xml version="1.0" encoding="utf-8"?>
<!-- Generator: Adobe Illustrator 24.1.1, SVG Export Plug-In . SVG Version: 6.00 Build 0)  -->
<svg version="1.1" id="Layer_1" focusable="false" xmlns="http://www.w3.org/2000/svg" xmlns:xlink="http://www.w3.org/1999/xlink"
	 x="0px" y="0px" viewBox="0 0 512 512" style="enable-background:new 0 0 512 512;" xml:space="preserve">
<path d="M416,320h-96c-17.6,0-32-14.4-32-32s14.4-32,32-32h96c0,0,96-107,96-160S469,0,416,0s-96,43-96,96c0,25.5,22.2,63.4,45.3,96
	H320c-52.9,0-96,43.1-96,96s43.1,96,96,96h96c17.6,0,32,14.4,32,32s-14.4,32-32,32H185.5c-16,24.8-33.8,47.7-47.3,64H416
	c52.9,0,96-43.1,96-96S468.9,320,416,320z M416,64c17.7,0,32,14.3,32,32s-14.3,32-32,32s-32-14.3-32-32S398.3,64,416,64z M96,256
	c-53,0-96,43-96,96s96,160,96,160s96-107,96-160S149,256,96,256z M96,384c-17.7,0-32-14.3-32-32s14.3-32,32-32s32,14.3,32,32
	S113.7,384,96,384z"/>
</svg>
